{
  "accessors": [
    {
      "bufferView": 2,
      "componentType": 5126,
      "count": 62662,
      "max": [
        0.023719029501080513,
        0.023715790361166,
        0.04389452189207077
      ],
      "min": [
        -0.023720601573586464,
        -0.023721780627965927,
        -0.0743279978632927
      ],
      "type": "VEC3"
    },
    {
      "bufferView": 2,
      "byteOffset": 751944,
      "componentType": 5126,
      "count": 62662,
      "max": [
        1.0,
        1.0,
        1.0
      ],
      "min": [
        -1.0,
        -1.0,
        -1.0
      ],
      "type": "VEC3"
    },
    {
      "bufferView": 3,
      "componentType": 5126,
      "count": 62662,
      "max": [
        1.0,
        0.9999831914901733,
        0.9999791383743286,
        1.0
      ],
      "min": [
        -0.9999999403953552,
        -0.9999815225601196,
        -0.9999997019767761,
        -1.0
      ],
      "type": "VEC4"
    },
    {
      "bufferView": 1,
      "componentType": 5126,
      "count": 62662,
      "max": [
        0.9615758657455444,
        0.9969724416732788
      ],
      "min": [
        0.0029343832284212112,
        0.0029343832284212112
      ],
      "type": "VEC2"
    },
    {
      "bufferView": 1,
      "byteOffset": 501296,
      "componentType": 5126,
      "count": 62662,
      "max": [
        0.9615758657455444,
        0.9969724416732788
      ],
      "min": [
        0.0029343832284212112,
        0.0029343832284212112
      ],
      "type": "VEC2"
    },
    {
      "bufferView": 1,
      "byteOffset": 1002592,
      "componentType": 5126,
      "count": 62662,
      "max": [
        0.9615758657455444,
        0.9969724416732788
      ],
      "min": [
        0.0029343832284212112,
        0.0029343832284212112
      ],
      "type": "VEC2"
    },
    {
      "bufferView": 0,
      "componentType": 5125,
      "count": 362028,
      "type": "SCALAR"
    }
  ],
  "asset": {
    "extras": {
      "author": "Avot (https://sketchfab.com/avot)",
      "license": "CC-BY-4.0 (http://creativecommons.org/licenses/by/4.0/)",
      "source": "https://sketchfab.com/3d-models/cfl-twister-lightbulb-6ef4879c0c04459e8971d61bddc9c90e",
      "title": "CFL Twister Lightbulb"
    },
    "generator": "Sketchfab-12.65.0",
    "version": "2.0"
  },
  "bufferViews": [
    {
      "buffer": 0,
      "byteLength": 1448112,
      "name": "floatBufferViews",
      "target": 34963
    },
    {
      "buffer": 0,
      "byteLength": 1503888,
      "byteOffset": 1448112,
      "byteStride": 8,
      "name": "floatBufferViews",
      "target": 34962
    },
    {
      "buffer": 0,
      "byteLength": 1503888,
      "byteOffset": 2952000,
      "byteStride": 12,
      "name": "floatBufferViews",
      "target": 34962
    },
    {
      "buffer": 0,
      "byteLength": 1002592,
      "byteOffset": 4455888,
      "byteStride": 16,
      "name": "floatBufferViews",
      "target": 34962
    }
  ],
  "buffers": [
    {
      "byteLength": 5458480,
      "uri": "scene.bin"
    }
  ],
  "images": [
    {
      "uri": "textures/CFLTwisterLightbulb_baseColor.png"
    },
    {
      "uri": "textures/CFLTwisterLightbulb_metallicRoughness.png"
    },
    {
      "uri": "textures/CFLTwisterLightbulb_normal.png"
    }
  ],
  "materials": [
    {
      "alphaMode": "BLEND",
      "doubleSided": true,
      "name": "CFLTwisterLightbulb",
      "normalTexture": {
        "index": 2
      },
      "pbrMetallicRoughness": {
        "baseColorTexture": {
          "index": 0
        },
        "metallicRoughnessTexture": {
          "index": 1
        }
      }
    }
  ],
  "meshes": [
    {
      "name": "CFL_Twister_Lightbulb_CFLTwisterLightbulb_0",
      "primitives": [
        {
          "attributes": {
            "NORMAL": 1,
            "POSITION": 0,
            "TANGENT": 2,
            "TEXCOORD_0": 3,
            "TEXCOORD_1": 4,
            "TEXCOORD_2": 5
          },
          "indices": 6,
          "material": 0,
          "mode": 4
        }
      ]
    }
  ],
  "nodes": [
    {
      "children": [
        1
      ],
      "matrix": [
        1.0,
        0.0,
        0.0,
        0.0,
        0.0,
        2.220446049250313e-16,
        -1.0,
        0.0,
        0.0,
        1.0,
        2.220446049250313e-16,
        0.0,
        0.0,
        0.0,
        0.0,
        1.0
      ],
      "name": "Sketchfab_model"
    },
    {
      "children": [
        2
      ],
      "matrix": [
        0.009999999776482582,
        0.0,
        0.0,
        0.0,
        0.0,
        0.0,
        0.009999999776482582,
        0.0,
        0.0,
        -0.009999999776482582,
        0.0,
        0.0,
        0.0,
        0.0,
        0.0,
        1.0
      ],
      "name": "cfl_twister_lightbulb.fbx"
    },
    {
      "children": [
        3
      ],
      "name": "RootNode"
    },
    {
      "children": [
        4
      ],
      "matrix": [
        100.0,
        0.0,
        0.0,
        0.0,
        0.0,
        -1.629206793918314e-05,
        -99.99999999999868,
        0.0,
        0.0,
        99.99999999999868,
        -1.629206793918314e-05,
        0.0,
        0.0,
        2.0395586490631104,
        0.0,
        1.0
      ],
      "name": "CFL_Twister_Lightbulb"
    },
    {
      "mesh": 0,
      "name": "CFL_Twister_Lightbulb_CFLTwisterLightbulb_0"
    }
  ],
  "samplers": [
    {
      "magFilter": 9729,
      "minFilter": 9987,
      "wrapS": 10497,
      "wrapT": 10497
    }
  ],
  "scene": 0,
  "scenes": [
    {
      "name": "Sketchfab_Scene",
      "nodes": [
        0
      ]
    }
  ],
  "textures": [
    {
      "sampler": 0,
      "source": 0
    },
    {
      "sampler": 0,
      "source": 1
    },
    {
      "sampler": 0,
      "source": 2
    }
  ]
}
