{
  "accessors": [
    {
      "bufferView": 2,
      "componentType": 5126,
      "count": 4015,
      "max": [
        0.18470700085163116,
        0.34965598583221436,
        0.7402229905128479
      ],
      "min": [
        -0.21748800575733185,
        0.039285000413656235,
        -0.00868299975991249
      ],
      "type": "VEC3"
    },
    {
      "bufferView": 2,
      "byteOffset": 48180,
      "componentType": 5126,
      "count": 4015,
      "max": [
        1.0,
        1.0,
        1.0
      ],
      "min": [
        -1.0,
        -1.0,
        -0.9999994039535522
      ],
      "type": "VEC3"
    },
    {
      "bufferView": 3,
      "componentType": 5126,
      "count": 4015,
      "max": [
        1.0,
        1.0,
        0.9999966621398926,
        1.0
      ],
      "min": [
        -1.0,
        -1.0,
        -1.0,
        1.0
      ],
      "type": "VEC4"
    },
    {
      "bufferView": 1,
      "componentType": 5126,
      "count": 4015,
      "max": [
        0.9584730267524719,
        0.9678080081939697
      ],
      "min": [
        0.0033390000462532043,
        0.003246000036597252
      ],
      "type": "VEC2"
    },
    {
      "bufferView": 0,
      "componentType": 5125,
      "count": 19296,
      "type": "SCALAR"
    },
    {
      "bufferView": 2,
      "byteOffset": 96360,
      "componentType": 5126,
      "count": 4896,
      "max": [
        0.17558500170707703,
        0.3128949999809265,
        0.8500660061836243
      ],
      "min": [
        -0.22157299518585205,
        -0.3170270025730133,
        0.10134299844503403
      ],
      "type": "VEC3"
    },
    {
      "bufferView": 2,
      "byteOffset": 155112,
      "componentType": 5126,
      "count": 4896,
      "max": [
        1.0,
        1.0,
        1.0
      ],
      "min": [
        -1.0,
        -1.0,
        -1.0
      ],
      "type": "VEC3"
    },
    {
      "bufferView": 3,
      "byteOffset": 64240,
      "componentType": 5126,
      "count": 4896,
      "max": [
        0.9999034404754639,
        1.0,
        0.9999926686286926,
        1.0
      ],
      "min": [
        -1.0,
        -0.9999997615814209,
        -1.0,
        1.0
      ],
      "type": "VEC4"
    },
    {
      "bufferView": 1,
      "byteOffset": 32120,
      "componentType": 5126,
      "count": 4896,
      "max": [
        0.9569479823112488,
        0.9557279944419861
      ],
      "min": [
        0.003642000025138259,
        0.003246000036597252
      ],
      "type": "VEC2"
    },
    {
      "bufferView": 0,
      "byteOffset": 77184,
      "componentType": 5125,
      "count": 23904,
      "type": "SCALAR"
    },
    {
      "bufferView": 2,
      "byteOffset": 213864,
      "componentType": 5126,
      "count": 6140,
      "max": [
        0.19280299544334412,
        0.34490498900413513,
        0.7192519903182983
      ],
      "min": [
        -0.2201479971408844,
        -0.26441100239753723,
        0.10255700349807739
      ],
      "type": "VEC3"
    },
    {
      "bufferView": 2,
      "byteOffset": 287544,
      "componentType": 5126,
      "count": 6140,
      "max": [
        1.0,
        1.0,
        1.0
      ],
      "min": [
        -1.0,
        -0.999992847442627,
        -1.0
      ],
      "type": "VEC3"
    },
    {
      "bufferView": 3,
      "byteOffset": 142576,
      "componentType": 5126,
      "count": 6140,
      "max": [
        1.0,
        1.0,
        0.9999994039535522,
        1.0
      ],
      "min": [
        -1.0,
        -0.9997748732566833,
        -0.999999463558197,
        1.0
      ],
      "type": "VEC4"
    },
    {
      "bufferView": 1,
      "byteOffset": 71288,
      "componentType": 5126,
      "count": 6140,
      "max": [
        0.9557399749755859,
        0.9529640078544617
      ],
      "min": [
        0.29577600955963135,
        0.17943300306797028
      ],
      "type": "VEC2"
    },
    {
      "bufferView": 0,
      "byteOffset": 172800,
      "componentType": 5125,
      "count": 32280,
      "type": "SCALAR"
    },
    {
      "bufferView": 2,
      "byteOffset": 361224,
      "componentType": 5126,
      "count": 5,
      "max": [
        -0.013094999827444553,
        0.17032800614833832,
        0.7707189917564392
      ],
      "min": [
        -0.01513299997895956,
        0.16694200038909912,
        0.7667790055274963
      ],
      "type": "VEC3"
    },
    {
      "bufferView": 1,
      "byteOffset": 120408,
      "componentType": 5126,
      "count": 5,
      "max": [
        0.0,
        0.0
      ],
      "min": [
        0.0,
        0.0
      ],
      "type": "VEC2"
    },
    {
      "bufferView": 0,
      "byteOffset": 301920,
      "componentType": 5125,
      "count": 8,
      "type": "SCALAR"
    },
    {
      "bufferView": 2,
      "byteOffset": 361284,
      "componentType": 5126,
      "count": 18336,
      "max": [
        0.24546000361442566,
        0.3554379940032959,
        0.7806310057640076
      ],
      "min": [
        -0.24047699570655823,
        -0.32301801443099976,
        -0.0010610000463202596
      ],
      "type": "VEC3"
    },
    {
      "bufferView": 2,
      "byteOffset": 581316,
      "componentType": 5126,
      "count": 18336,
      "max": [
        1.0,
        1.0,
        1.0
      ],
      "min": [
        -1.0,
        -1.0,
        -1.0
      ],
      "type": "VEC3"
    },
    {
      "bufferView": 3,
      "byteOffset": 240816,
      "componentType": 5126,
      "count": 18336,
      "max": [
        0.9999461770057678,
        1.0,
        1.0,
        1.0
      ],
      "min": [
        -0.9998121857643127,
        -1.0,
        -0.9999991059303284,
        -1.0
      ],
      "type": "VEC4"
    },
    {
      "bufferView": 1,
      "byteOffset": 120448,
      "componentType": 5126,
      "count": 18336,
      "max": [
        0.9704530239105225,
        0.996641993522644
      ],
      "min": [
        0.0034580000210553408,
        0.0032579998951405287
      ],
      "type": "VEC2"
    },
    {
      "bufferView": 0,
      "byteOffset": 301952,
      "componentType": 5125,
      "count": 97236,
      "type": "SCALAR"
    }
  ],
  "asset": {
    "extras": {
      "author": "Xill (https://sketchfab.com/Xill)",
      "license": "CC-BY-4.0 (http://creativecommons.org/licenses/by/4.0/)",
      "source": "https://sketchfab.com/3d-models/toilet-24d1b493899d407780140688abae19bc",
      "title": "Toilet"
    },
    "generator": "Sketchfab-12.65.0",
    "version": "2.0"
  },
  "bufferViews": [
    {
      "buffer": 0,
      "byteLength": 690896,
      "name": "floatBufferViews",
      "target": 34963
    },
    {
      "buffer": 0,
      "byteLength": 267136,
      "byteOffset": 690896,
      "byteStride": 8,
      "name": "floatBufferViews",
      "target": 34962
    },
    {
      "buffer": 0,
      "byteLength": 801348,
      "byteOffset": 958032,
      "byteStride": 12,
      "name": "floatBufferViews",
      "target": 34962
    },
    {
      "buffer": 0,
      "byteLength": 534192,
      "byteOffset": 1759380,
      "byteStride": 16,
      "name": "floatBufferViews",
      "target": 34962
    }
  ],
  "buffers": [
    {
      "byteLength": 2293572,
      "uri": "scene.bin"
    }
  ],
  "images": [
    {
      "uri": "textures/Scene_-_Root_baseColor.png"
    },
    {
      "uri": "textures/Scene_-_Root_metallicRoughness.png"
    },
    {
      "uri": "textures/Scene_-_Root_normal.png"
    }
  ],
  "materials": [
    {
      "doubleSided": true,
      "name": "Scene_-_Root",
      "normalTexture": {
        "index": 2
      },
      "occlusionTexture": {
        "index": 1
      },
      "pbrMetallicRoughness": {
        "baseColorTexture": {
          "index": 0
        },
        "metallicRoughnessTexture": {
          "index": 1
        }
      }
    }
  ],
  "meshes": [
    {
      "name": "Object_0",
      "primitives": [
        {
          "attributes": {
            "NORMAL": 1,
            "POSITION": 0,
            "TANGENT": 2,
            "TEXCOORD_0": 3
          },
          "indices": 4,
          "material": 0,
          "mode": 4
        }
      ]
    },
    {
      "name": "Object_1",
      "primitives": [
        {
          "attributes": {
            "NORMAL": 6,
            "POSITION": 5,
            "TANGENT": 7,
            "TEXCOORD_0": 8
          },
          "indices": 9,
          "material": 0,
          "mode": 4
        }
      ]
    },
    {
      "name": "Object_2",
      "primitives": [
        {
          "attributes": {
            "NORMAL": 11,
            "POSITION": 10,
            "TANGENT": 12,
            "TEXCOORD_0": 13
          },
          "indices": 14,
          "material": 0,
          "mode": 4
        }
      ]
    },
    {
      "name": "Object_3",
      "primitives": [
        {
          "attributes": {
            "POSITION": 15,
            "TEXCOORD_0": 16
          },
          "indices": 17,
          "material": 0,
          "mode": 1
        }
      ]
    },
    {
      "name": "Object_4",
      "primitives": [
        {
          "attributes": {
            "NORMAL": 19,
            "POSITION": 18,
            "TANGENT": 20,
            "TEXCOORD_0": 21
          },
          "indices": 22,
          "material": 0,
          "mode": 4
        }
      ]
    }
  ],
  "nodes": [
    {
      "children": [
        1
      ],
      "matrix": [
        1.2522251605987549,
        0.0,
        0.0,
        0.0,
        0.0,
        2.780498410623344e-16,
        -1.2522251605987549,
        0.0,
        0.0,
        1.2522251605987549,
        2.780498410623344e-16,
        0.0,
        0.0,
        0.0,
        0.0,
        1.0
      ],
      "name": "Sketchfab_model"
    },
    {
      "children": [
        2,
        3,
        4,
        5,
        6
      ],
      "name": "Toilet_sub1.obj.cleaner.materialmerger.gles"
    },
    {
      "mesh": 0,
      "name": "Object_2"
    },
    {
      "mesh": 1,
      "name": "Object_3"
    },
    {
      "mesh": 2,
      "name": "Object_4"
    },
    {
      "mesh": 3,
      "name": "Object_5"
    },
    {
      "mesh": 4,
      "name": "Object_6"
    }
  ],
  "samplers": [
    {
      "magFilter": 9729,
      "minFilter": 9987,
      "wrapS": 10497,
      "wrapT": 10497
    }
  ],
  "scene": 0,
  "scenes": [
    {
      "name": "Sketchfab_Scene",
      "nodes": [
        0
      ]
    }
  ],
  "textures": [
    {
      "sampler": 0,
      "source": 0
    },
    {
      "sampler": 0,
      "source": 1
    },
    {
      "sampler": 0,
      "source": 2
    }
  ]
}
