{
  "accessors": [
    {
      "bufferView": 2,
      "componentType": 5126,
      "count": 15696,
      "max": [
        0.06814099848270416,
        0.08993600308895111,
        0.1921820044517517
      ],
      "min": [
        -0.16600799560546875,
        -0.07799399644136429,
        -0.09792199730873108
      ],
      "type": "VEC3"
    },
    {
      "bufferView": 2,
      "byteOffset": 188352,
      "componentType": 5126,
      "count": 15696,
      "max": [
        0.9999831914901733,
        0.9999346733093262,
        0.999870240688324
      ],
      "min": [
        -0.9999454021453857,
        -0.9999895691871643,
        -0.9998891949653625
      ],
      "type": "VEC3"
    },
    {
      "bufferView": 1,
      "componentType": 5126,
      "count": 15696,
      "max": [
        0.9963870048522949,
        0.999767005443573
      ],
      "min": [
        0.00013000000035390258,
        0.00021702051162719727
      ],
      "type": "VEC2"
    },
    {
      "bufferView": 1,
      "byteOffset": 125568,
      "componentType": 5126,
      "count": 15696,
      "max": [
        0.9963870048522949,
        0.999767005443573
      ],
      "min": [
        0.00013000000035390258,
        0.00021702051162719727
      ],
      "type": "VEC2"
    },
    {
      "bufferView": 0,
      "componentType": 5125,
      "count": 68856,
      "type": "SCALAR"
    }
  ],
  "asset": {
    "extras": {
      "author": "0awx (https://sketchfab.com/0awx)",
      "license": "CC-BY-4.0 (http://creativecommons.org/licenses/by/4.0/)",
      "source": "https://sketchfab.com/3d-models/air-jordan-1-retro-high-og-chicago-3d-scan-c4555969dd524b8c82bf65fcf08b80e8",
      "title": "Air Jordan 1 Retro High OG Chicago 3D Scan"
    },
    "generator": "Sketchfab-14.23.0",
    "version": "2.0"
  },
  "bufferViews": [
    {
      "buffer": 0,
      "byteLength": 275424,
      "name": "floatBufferViews",
      "target": 34963
    },
    {
      "buffer": 0,
      "byteLength": 251136,
      "byteOffset": 275424,
      "byteStride": 8,
      "name": "floatBufferViews",
      "target": 34962
    },
    {
      "buffer": 0,
      "byteLength": 376704,
      "byteOffset": 526560,
      "byteStride": 12,
      "name": "floatBufferViews",
      "target": 34962
    }
  ],
  "buffers": [
    {
      "byteLength": 903264,
      "uri": "scene.bin"
    }
  ],
  "images": [
    {
      "uri": "textures/textured_0_baseColor.png"
    },
    {
      "uri": "textures/textured_0_metallicRoughness.png"
    }
  ],
  "materials": [
    {
      "name": "textured_0",
      "occlusionTexture": {
        "index": 1
      },
      "pbrMetallicRoughness": {
        "baseColorTexture": {
          "index": 0
        },
        "metallicFactor": 0.0,
        "metallicRoughnessTexture": {
          "index": 1
        },
        "roughnessFactor": 0.9
      }
    }
  ],
  "meshes": [
    {
      "name": "MDL_OBJ_textured_0",
      "primitives": [
        {
          "attributes": {
            "NORMAL": 1,
            "POSITION": 0,
            "TEXCOORD_0": 2,
            "TEXCOORD_1": 3
          },
          "indices": 4,
          "material": 0,
          "mode": 4
        }
      ]
    }
  ],
  "nodes": [
    {
      "children": [
        1
      ],
      "matrix": [
        1.0,
        0.0,
        0.0,
        0.0,
        0.0,
        2.220446049250313e-16,
        -1.0,
        0.0,
        0.0,
        1.0,
        2.220446049250313e-16,
        0.0,
        0.0,
        0.0,
        0.0,
        1.0
      ],
      "name": "Sketchfab_model"
    },
    {
      "children": [
        2
      ],
      "matrix": [
        1.0,
        0.0,
        0.0,
        0.0,
        0.0,
        2.220446049250313e-16,
        1.0,
        0.0,
        0.0,
        -1.0,
        2.220446049250313e-16,
        0.0,
        0.0,
        0.0,
        0.0,
        1.0
      ],
      "name": "USDRoot"
    },
    {
      "children": [
        3
      ],
      "name": "Oct20at9_45AM_poly"
    },
    {
      "children": [
        4
      ],
      "name": "Geom"
    },
    {
      "mesh": 0,
      "name": "MDL_OBJ_textured_0"
    }
  ],
  "samplers": [
    {
      "magFilter": 9729,
      "minFilter": 9987,
      "wrapS": 10497,
      "wrapT": 10497
    }
  ],
  "scene": 0,
  "scenes": [
    {
      "name": "Sketchfab_Scene",
      "nodes": [
        0
      ]
    }
  ],
  "textures": [
    {
      "sampler": 0,
      "source": 0
    },
    {
      "sampler": 0,
      "source": 1
    }
  ]
}
