{
  "accessors": [
    {
      "bufferView": 2,
      "componentType": 5126,
      "count": 4,
      "max": [
        0.44999998807907104,
        0.042921628803014755,
        1.9492175579071045
      ],
      "min": [
        -0.44999998807907104,
        -0.12267427891492844,
        0.056447599083185196
      ],
      "type": "VEC3"
    },
    {
      "bufferView": 2,
      "byteOffset": 48,
      "componentType": 5126,
      "count": 4,
      "max": [
        0.0,
        0.9961947202682495,
        -0.08715574443340302
      ],
      "min": [
        0.0,
        0.9961947202682495,
        -0.08715574443340302
      ],
      "type": "VEC3"
    },
    {
      "bufferView": 3,
      "componentType": 5126,
      "count": 4,
      "max": [
        -1.0,
        0.0,
        0.0,
        1.0
      ],
      "min": [
        -1.0,
        0.0,
        0.0,
        1.0
      ],
      "type": "VEC4"
    },
    {
      "bufferView": 1,
      "componentType": 5126,
      "count": 4,
      "max": [
        0.876600444316864,
        0.5883787870407104
      ],
      "min": [
        0.6033995151519775,
        0.011621234007179737
      ],
      "type": "VEC2"
    },
    {
      "bufferView": 0,
      "componentType": 5125,
      "count": 6,
      "type": "SCALAR"
    },
    {
      "bufferView": 2,
      "byteOffset": 96,
      "componentType": 5126,
      "count": 4,
      "max": [
        0.44999998807907104,
        0.10269331187009811,
        1.9439882040023804
      ],
      "min": [
        -0.44999998807907104,
        -0.06290259957313538,
        0.05121825262904167
      ],
      "type": "VEC3"
    },
    {
      "bufferView": 2,
      "byteOffset": 144,
      "componentType": 5126,
      "count": 4,
      "max": [
        0.0,
        -0.9961947202682495,
        0.08715574443340302
      ],
      "min": [
        0.0,
        -0.9961947202682495,
        0.08715574443340302
      ],
      "type": "VEC3"
    },
    {
      "bufferView": 3,
      "byteOffset": 64,
      "componentType": 5126,
      "count": 4,
      "max": [
        1.0,
        0.0,
        0.0,
        1.0
      ],
      "min": [
        1.0,
        0.0,
        0.0,
        1.0
      ],
      "type": "VEC4"
    },
    {
      "bufferView": 1,
      "byteOffset": 32,
      "componentType": 5126,
      "count": 4,
      "max": [
        0.5966004729270935,
        0.5883787870407104
      ],
      "min": [
        0.32339954376220703,
        0.011621234007179737
      ],
      "type": "VEC2"
    },
    {
      "bufferView": 0,
      "byteOffset": 24,
      "componentType": 5125,
      "count": 6,
      "type": "SCALAR"
    },
    {
      "bufferView": 2,
      "byteOffset": 192,
      "componentType": 5126,
      "count": 4,
      "max": [
        0.44999998807907104,
        0.04092923924326897,
        1.9493918418884277
      ],
      "min": [
        -0.44999998807907104,
        -0.12466666847467422,
        0.05662190914154053
      ],
      "type": "VEC3"
    },
    {
      "bufferView": 2,
      "byteOffset": 240,
      "componentType": 5126,
      "count": 4,
      "max": [
        0.0,
        -0.9961947202682495,
        0.08715574443340302
      ],
      "min": [
        0.0,
        -0.9961947202682495,
        0.08715574443340302
      ],
      "type": "VEC3"
    },
    {
      "bufferView": 3,
      "byteOffset": 128,
      "componentType": 5126,
      "count": 4,
      "max": [
        0.0,
        -0.08715574443340302,
        -0.9961947798728943,
        1.0
      ],
      "min": [
        0.0,
        -0.08715574443340302,
        -0.9961947798728943,
        1.0
      ],
      "type": "VEC4"
    },
    {
      "bufferView": 1,
      "byteOffset": 64,
      "componentType": 5126,
      "count": 4,
      "max": [
        0.9883788228034973,
        0.9966005682945251
      ],
      "min": [
        0.4116212725639343,
        0.7233996391296387
      ],
      "type": "VEC2"
    },
    {
      "bufferView": 0,
      "byteOffset": 48,
      "componentType": 5125,
      "count": 6,
      "type": "SCALAR"
    },
    {
      "bufferView": 2,
      "byteOffset": 288,
      "componentType": 5126,
      "count": 16,
      "max": [
        0.44999998807907104,
        0.042921628803014755,
        1.9493918418884277
      ],
      "min": [
        -0.44999998807907104,
        -0.12466666847467422,
        0.056447599083185196
      ],
      "type": "VEC3"
    },
    {
      "bufferView": 2,
      "byteOffset": 480,
      "componentType": 5126,
      "count": 16,
      "max": [
        1.0,
        0.08715574443340302,
        0.9961947202682495
      ],
      "min": [
        -1.0,
        -0.08715574443340302,
        -0.9961947202682495
      ],
      "type": "VEC3"
    },
    {
      "bufferView": 1,
      "byteOffset": 96,
      "componentType": 5126,
      "count": 16,
      "max": [
        0.0,
        0.0
      ],
      "min": [
        0.0,
        0.0
      ],
      "type": "VEC2"
    },
    {
      "bufferView": 0,
      "byteOffset": 72,
      "componentType": 5125,
      "count": 24,
      "type": "SCALAR"
    },
    {
      "bufferView": 2,
      "byteOffset": 672,
      "componentType": 5126,
      "count": 52,
      "max": [
        0.5,
        0.13693693280220032,
        1.9998987913131714
      ],
      "min": [
        -0.5,
        -0.13699401915073395,
        -0.001206153305247426
      ],
      "type": "VEC3"
    },
    {
      "bufferView": 2,
      "byteOffset": 1296,
      "componentType": 5126,
      "count": 52,
      "max": [
        1.0,
        0.9961947202682495,
        0.9961947202682495
      ],
      "min": [
        -1.0,
        -0.9961947202682495,
        -0.9961947202682495
      ],
      "type": "VEC3"
    },
    {
      "bufferView": 3,
      "byteOffset": 192,
      "componentType": 5126,
      "count": 52,
      "max": [
        1.0,
        0.9961947798728943,
        0.9961947798728943,
        1.0
      ],
      "min": [
        -1.0,
        -0.9961948990821838,
        -0.0871557667851448,
        1.0
      ],
      "type": "VEC4"
    },
    {
      "bufferView": 1,
      "byteOffset": 224,
      "componentType": 5126,
      "count": 52,
      "max": [
        0.9931833148002625,
        0.9827667474746704
      ],
      "min": [
        0.008221701718866825,
        0.006443404126912355
      ],
      "type": "VEC2"
    },
    {
      "bufferView": 0,
      "byteOffset": 168,
      "componentType": 5125,
      "count": 78,
      "type": "SCALAR"
    }
  ],
  "asset": {
    "extras": {
      "author": "Canary Games (https://sketchfab.com/CapAlatriste)",
      "license": "CC-BY-4.0 (http://creativecommons.org/licenses/by/4.0/)",
      "source": "https://sketchfab.com/3d-models/6-infinite-mirror-3december2019-aed1aa465fe84ec5ab16d6cdad1ff78c",
      "title": "#6 Infinite Mirror 3December2019"
    },
    "generator": "Sketchfab-12.67.0",
    "version": "2.0"
  },
  "bufferViews": [
    {
      "buffer": 0,
      "byteLength": 480,
      "name": "floatBufferViews",
      "target": 34963
    },
    {
      "buffer": 0,
      "byteLength": 640,
      "byteOffset": 480,
      "byteStride": 8,
      "name": "floatBufferViews",
      "target": 34962
    },
    {
      "buffer": 0,
      "byteLength": 1920,
      "byteOffset": 1120,
      "byteStride": 12,
      "name": "floatBufferViews",
      "target": 34962
    },
    {
      "buffer": 0,
      "byteLength": 1024,
      "byteOffset": 3040,
      "byteStride": 16,
      "name": "floatBufferViews",
      "target": 34962
    }
  ],
  "buffers": [
    {
      "byteLength": 4064,
      "uri": "scene.bin"
    }
  ],
  "extensionsUsed": [
    "KHR_materials_transmission"
  ],
  "images": [
    {
      "uri": "textures/Magic_Mirror_baseColor.png"
    },
    {
      "uri": "textures/Magic_Mirror_metallicRoughness.png"
    },
    {
      "uri": "textures/Magic_Mirror_emissive.png"
    },
    {
      "uri": "textures/Magic_Mirror_normal.png"
    },
    {
      "uri": "textures/Magic_Mirror_Back_Front_metallicRoughness.png"
    }
  ],
  "materials": [
    {
      "alphaMode": "BLEND",
      "doubleSided": true,
      "emissiveFactor": [
        1.0,
        1.0,
        1.0
      ],
      "emissiveTexture": {
        "index": 2
      },
      "name": "Magic_Mirror",
      "normalTexture": {
        "index": 3
      },
      "occlusionTexture": {
        "index": 1
      },
      "pbrMetallicRoughness": {
        "baseColorTexture": {
          "index": 0
        },
        "metallicRoughnessTexture": {
          "index": 1
        }
      }
    },
    {
      "alphaMode": "BLEND",
      "doubleSided": true,
      "name": "Magic_Mirror_Back_Front",
      "normalTexture": {
        "index": 3
      },
      "occlusionTexture": {
        "index": 4
      },
      "pbrMetallicRoughness": {
        "baseColorFactor": [
          0.0,
          0.0,
          0.0,
          0.0
        ],
        "metallicFactor": 0.0,
        "metallicRoughnessTexture": {
          "index": 4
        },
        "roughnessFactor": 0.0
      }
    },
    {
      "doubleSided": true,
      "extensions": {
        "KHR_materials_transmission": {
          "transmissionFactor": 0.0
        }
      },
      "name": "Magic_Mirror_Fondo",
      "normalTexture": {
        "index": 3
      },
      "occlusionTexture": {
        "index": 4
      },
      "pbrMetallicRoughness": {
        "baseColorFactor": [
          0.0,
          0.0,
          0.0,
          1.0
        ],
        "metallicFactor": 0.0,
        "metallicRoughnessTexture": {
          "index": 4
        },
        "roughnessFactor": 0.0
      }
    },
    {
      "alphaMode": "BLEND",
      "name": "Magic_Mirror_Front",
      "normalTexture": {
        "index": 3
      },
      "occlusionTexture": {
        "index": 4
      },
      "pbrMetallicRoughness": {
        "baseColorFactor": [
          0.0,
          0.0,
          0.0,
          0.9228787971265389
        ],
        "metallicFactor": 0.0,
        "metallicRoughnessTexture": {
          "index": 4
        },
        "roughnessFactor": 0.0
      }
    }
  ],
  "meshes": [
    {
      "name": "Object_0",
      "primitives": [
        {
          "attributes": {
            "NORMAL": 1,
            "POSITION": 0,
            "TANGENT": 2,
            "TEXCOORD_0": 3
          },
          "indices": 4,
          "material": 1,
          "mode": 4
        }
      ]
    },
    {
      "name": "Object_1",
      "primitives": [
        {
          "attributes": {
            "NORMAL": 6,
            "POSITION": 5,
            "TANGENT": 7,
            "TEXCOORD_0": 8
          },
          "indices": 9,
          "material": 2,
          "mode": 4
        }
      ]
    },
    {
      "name": "Object_2",
      "primitives": [
        {
          "attributes": {
            "NORMAL": 11,
            "POSITION": 10,
            "TANGENT": 12,
            "TEXCOORD_0": 13
          },
          "indices": 14,
          "material": 3,
          "mode": 4
        }
      ]
    },
    {
      "name": "Object_3",
      "primitives": [
        {
          "attributes": {
            "NORMAL": 16,
            "POSITION": 15,
            "TEXCOORD_0": 17
          },
          "indices": 18,
          "material": 0,
          "mode": 4
        }
      ]
    },
    {
      "name": "Object_4",
      "primitives": [
        {
          "attributes": {
            "NORMAL": 20,
            "POSITION": 19,
            "TANGENT": 21,
            "TEXCOORD_0": 22
          },
          "indices": 23,
          "material": 0,
          "mode": 4
        }
      ]
    }
  ],
  "nodes": [
    {
      "children": [
        1
      ],
      "matrix": [
        1.0,
        0.0,
        0.0,
        0.0,
        0.0,
        2.220446049250313e-16,
        -1.0,
        0.0,
        0.0,
        1.0,
        2.220446049250313e-16,
        0.0,
        0.0,
        0.0,
        0.0,
        1.0
      ],
      "name": "Sketchfab_model"
    },
    {
      "children": [
        2,
        3,
        4,
        5,
        6
      ],
      "name": "924a25e12872469b994c3d3091c26a59.obj.cleaner.materialmerger.gles"
    },
    {
      "mesh": 0,
      "name": "Object_2"
    },
    {
      "mesh": 1,
      "name": "Object_3"
    },
    {
      "mesh": 2,
      "name": "Object_4"
    },
    {
      "mesh": 3,
      "name": "Object_5"
    },
    {
      "mesh": 4,
      "name": "Object_6"
    }
  ],
  "samplers": [
    {
      "magFilter": 9729,
      "minFilter": 9987,
      "wrapS": 10497,
      "wrapT": 10497
    }
  ],
  "scene": 0,
  "scenes": [
    {
      "name": "Sketchfab_Scene",
      "nodes": [
        0
      ]
    }
  ],
  "textures": [
    {
      "sampler": 0,
      "source": 0
    },
    {
      "sampler": 0,
      "source": 1
    },
    {
      "sampler": 0,
      "source": 2
    },
    {
      "sampler": 0,
      "source": 3
    },
    {
      "sampler": 0,
      "source": 4
    }
  ]
}
