{
  "accessors": [
    {
      "bufferView": 2,
      "componentType": 5126,
      "count": 60,
      "max": [
        70.00064849853516,
        -389.97412109375,
        -2424.999755859375
      ],
      "min": [
        -109.99996948242188,
        -397.526611328125,
        -2574.999755859375
      ],
      "type": "VEC3"
    },
    {
      "bufferView": 2,
      "byteOffset": 720,
      "componentType": 5126,
      "count": 60,
      "max": [
        1.0,
        1.0,
        1.0
      ],
      "min": [
        -1.0,
        -0.3826678693294525,
        -1.0
      ],
      "type": "VEC3"
    },
    {
      "bufferView": 3,
      "componentType": 5126,
      "count": 60,
      "max": [
        7.931535947136581e-06,
        1.0,
        3.575259688659571e-05,
        1.0
      ],
      "min": [
        -1.0,
        -1.0,
        -1.0,
        1.0
      ],
      "type": "VEC4"
    },
    {
      "bufferView": 1,
      "componentType": 5126,
      "count": 60,
      "max": [
        0.9782330989837646,
        0.9492241740226746
      ],
      "min": [
        0.0005000000237487257,
        0.0005000000237487257
      ],
      "type": "VEC2"
    },
    {
      "bufferView": 0,
      "componentType": 5125,
      "count": 96,
      "type": "SCALAR"
    },
    {
      "bufferView": 2,
      "byteOffset": 1440,
      "componentType": 5126,
      "count": 56,
      "max": [
        70.0005874633789,
        -401.65478515625,
        -2424.99951171875
      ],
      "min": [
        -109.99989318847656,
        -416.37744140625,
        -2574.999755859375
      ],
      "type": "VEC3"
    },
    {
      "bufferView": 2,
      "byteOffset": 2112,
      "componentType": 5126,
      "count": 56,
      "max": [
        1.0,
        0.049536336213350296,
        1.0
      ],
      "min": [
        -1.0,
        -1.0,
        -1.0
      ],
      "type": "VEC3"
    },
    {
      "bufferView": 3,
      "byteOffset": 960,
      "componentType": 5126,
      "count": 56,
      "max": [
        1.0,
        1.0,
        8.177287236321718e-05,
        1.0
      ],
      "min": [
        -0.056636303663253784,
        -1.0,
        -0.9999998211860657,
        1.0
      ],
      "type": "VEC4"
    },
    {
      "bufferView": 1,
      "byteOffset": 480,
      "componentType": 5126,
      "count": 56,
      "max": [
        0.8813874125480652,
        0.9506210088729858
      ],
      "min": [
        0.07088417559862137,
        0.0005000000237487257
      ],
      "type": "VEC2"
    },
    {
      "bufferView": 0,
      "byteOffset": 384,
      "componentType": 5125,
      "count": 96,
      "type": "SCALAR"
    },
    {
      "bufferView": 2,
      "byteOffset": 2784,
      "componentType": 5126,
      "count": 72,
      "max": [
        60.000640869140625,
        -397.526611328125,
        -2429.999755859375
      ],
      "min": [
        -99.99993896484375,
        -401.65478515625,
        -2569.999755859375
      ],
      "type": "VEC3"
    },
    {
      "bufferView": 2,
      "byteOffset": 3648,
      "componentType": 5126,
      "count": 72,
      "max": [
        0.9992736577987671,
        1.0,
        0.999274730682373
      ],
      "min": [
        -0.9992736577987671,
        -1.0,
        -0.999274730682373
      ],
      "type": "VEC3"
    },
    {
      "bufferView": 3,
      "byteOffset": 1856,
      "componentType": 5126,
      "count": 72,
      "max": [
        1.0,
        0.999274730682373,
        3.1039486202644184e-05,
        1.0
      ],
      "min": [
        -1.0,
        -0.999274730682373,
        -1.0,
        1.0
      ],
      "type": "VEC4"
    },
    {
      "bufferView": 1,
      "byteOffset": 928,
      "componentType": 5126,
      "count": 72,
      "max": [
        0.996797502040863,
        0.9495376348495483
      ],
      "min": [
        0.282036691904068,
        0.0005000000237487257
      ],
      "type": "VEC2"
    },
    {
      "bufferView": 0,
      "byteOffset": 768,
      "componentType": 5125,
      "count": 120,
      "type": "SCALAR"
    },
    {
      "bufferView": 2,
      "byteOffset": 4512,
      "componentType": 5126,
      "count": 8,
      "max": [
        57.8692512512207,
        -399.0187683105469,
        -2432.10791015625
      ],
      "min": [
        -97.86856842041016,
        -399.8974609375,
        -2567.8916015625
      ],
      "type": "VEC3"
    },
    {
      "bufferView": 2,
      "byteOffset": 4608,
      "componentType": 5126,
      "count": 8,
      "max": [
        0.0,
        1.0,
        0.0
      ],
      "min": [
        -3.5232981896587967e-13,
        -1.0,
        -2.2475184380255087e-07
      ],
      "type": "VEC3"
    },
    {
      "bufferView": 1,
      "byteOffset": 1504,
      "componentType": 5126,
      "count": 8,
      "max": [
        0.988543689250946,
        0.9994999766349792
      ],
      "min": [
        0.352420836687088,
        0.0005000000237487257
      ],
      "type": "VEC2"
    },
    {
      "bufferView": 0,
      "byteOffset": 1248,
      "componentType": 5125,
      "count": 12,
      "type": "SCALAR"
    }
  ],
  "asset": {
    "extras": {
      "author": "sskjellestad (https://sketchfab.com/sskjellestad)",
      "license": "CC-BY-4.0 (http://creativecommons.org/licenses/by/4.0/)",
      "source": "https://sketchfab.com/3d-models/50s-window-lowpoly-3859a8d1e07049d3b8d3649c8fa6abb1",
      "title": "50s Window Lowpoly"
    },
    "generator": "Sketchfab-12.68.0",
    "version": "2.0"
  },
  "bufferViews": [
    {
      "buffer": 0,
      "byteLength": 1296,
      "name": "floatBufferViews",
      "target": 34963
    },
    {
      "buffer": 0,
      "byteLength": 1568,
      "byteOffset": 1296,
      "byteStride": 8,
      "name": "floatBufferViews",
      "target": 34962
    },
    {
      "buffer": 0,
      "byteLength": 4704,
      "byteOffset": 2864,
      "byteStride": 12,
      "name": "floatBufferViews",
      "target": 34962
    },
    {
      "buffer": 0,
      "byteLength": 3008,
      "byteOffset": 7568,
      "byteStride": 16,
      "name": "floatBufferViews",
      "target": 34962
    }
  ],
  "buffers": [
    {
      "byteLength": 10576,
      "uri": "scene.bin"
    }
  ],
  "images": [
    {
      "uri": "textures/Material_14_Slot_2_baseColor.png"
    },
    {
      "uri": "textures/Material_14_Slot_2_metallicRoughness.png"
    },
    {
      "uri": "textures/Material_14_Slot_2_normal.png"
    },
    {
      "uri": "textures/Material_14_Slot_1_baseColor.png"
    },
    {
      "uri": "textures/Material_14_Slot_1_metallicRoughness.png"
    },
    {
      "uri": "textures/Material_14_Slot_1_normal.png"
    },
    {
      "uri": "textures/Material_14_Slot_3_baseColor.png"
    },
    {
      "uri": "textures/Material_14_Slot_3_metallicRoughness.png"
    },
    {
      "uri": "textures/Material_14_Slot_3_normal.png"
    }
  ],
  "materials": [
    {
      "doubleSided": true,
      "name": "Material_14_Slot_2",
      "normalTexture": {
        "index": 2
      },
      "occlusionTexture": {
        "index": 1
      },
      "pbrMetallicRoughness": {
        "baseColorTexture": {
          "index": 0
        },
        "metallicFactor": 0.0,
        "metallicRoughnessTexture": {
          "index": 1
        }
      }
    },
    {
      "doubleSided": true,
      "name": "Material_14_Slot_1",
      "normalTexture": {
        "index": 5
      },
      "occlusionTexture": {
        "index": 4
      },
      "pbrMetallicRoughness": {
        "baseColorTexture": {
          "index": 3
        },
        "metallicFactor": 0.0,
        "metallicRoughnessTexture": {
          "index": 4
        }
      }
    },
    {
      "doubleSided": true,
      "name": "Material_14_Slot_3",
      "normalTexture": {
        "index": 8
      },
      "occlusionTexture": {
        "index": 7
      },
      "pbrMetallicRoughness": {
        "baseColorTexture": {
          "index": 6
        },
        "metallicRoughnessTexture": {
          "index": 7
        }
      }
    },
    {
      "alphaMode": "BLEND",
      "doubleSided": true,
      "name": "Material_14_Slot_4",
      "pbrMetallicRoughness": {
        "baseColorFactor": [
          0.0,
          0.0,
          0.0,
          0.3336509146341463
        ],
        "metallicFactor": 0.0,
        "roughnessFactor": 0.9577051495
      }
    }
  ],
  "meshes": [
    {
      "name": "Object043_Material #14 Slot #2_0",
      "primitives": [
        {
          "attributes": {
            "NORMAL": 1,
            "POSITION": 0,
            "TANGENT": 2,
            "TEXCOORD_0": 3
          },
          "indices": 4,
          "material": 0,
          "mode": 4
        }
      ]
    },
    {
      "name": "Object043_Material #14 Slot #1_0",
      "primitives": [
        {
          "attributes": {
            "NORMAL": 6,
            "POSITION": 5,
            "TANGENT": 7,
            "TEXCOORD_0": 8
          },
          "indices": 9,
          "material": 1,
          "mode": 4
        }
      ]
    },
    {
      "name": "Object043_Material #14 Slot #3_0",
      "primitives": [
        {
          "attributes": {
            "NORMAL": 11,
            "POSITION": 10,
            "TANGENT": 12,
            "TEXCOORD_0": 13
          },
          "indices": 14,
          "material": 2,
          "mode": 4
        }
      ]
    },
    {
      "name": "Object043_Material #14 Slot #4_0",
      "primitives": [
        {
          "attributes": {
            "NORMAL": 16,
            "POSITION": 15,
            "TEXCOORD_0": 17
          },
          "indices": 18,
          "material": 3,
          "mode": 4
        }
      ]
    }
  ],
  "nodes": [
    {
      "children": [
        1
      ],
      "matrix": [
        1.0,
        0.0,
        0.0,
        0.0,
        0.0,
        2.220446049250313e-16,
        -1.0,
        0.0,
        0.0,
        1.0,
        2.220446049250313e-16,
        0.0,
        0.0,
        0.0,
        0.0,
        1.0
      ],
      "name": "Sketchfab_model"
    },
    {
      "children": [
        2
      ],
      "matrix": [
        1.0,
        0.0,
        0.0,
        0.0,
        0.0,
        0.0,
        1.0,
        0.0,
        0.0,
        -1.0,
        0.0,
        0.0,
        0.0,
        0.0,
        0.0,
        1.0
      ],
      "name": "9c2679a518f040d5bf4eff24f8d3819a.fbx"
    },
    {
      "children": [
        3
      ],
      "name": "RootNode"
    },
    {
      "children": [
        4
      ],
      "matrix": [
        3.1391647326017846e-07,
        0.9999999999999507,
        1.1102230246251565e-16,
        0.0,
        -1.1102230246251565e-16,
        1.1102230246251565e-16,
        -1.0,
        0.0,
        -0.9999999999999507,
        3.1391647326017846e-07,
        1.1102230246251565e-16,
        0.0,
        -199.99998474121094,
        179.99972534179688,
        -10.21270751953125,
        1.0
      ],
      "name": "Object043"
    },
    {
      "children": [
        5,
        6,
        7,
        8
      ],
      "matrix": [
        1.0,
        0.0,
        -0.0,
        0.0,
        0.0,
        1.0,
        0.0,
        0.0,
        0.0,
        0.0,
        1.0,
        0.0,
        19.999664306640625,
        403.17578125,
        2499.99951171875,
        1.0
      ],
      "name": "Object_4"
    },
    {
      "mesh": 0,
      "name": "Object043_Material #14 Slot #2_0"
    },
    {
      "mesh": 1,
      "name": "Object043_Material #14 Slot #1_0"
    },
    {
      "mesh": 2,
      "name": "Object043_Material #14 Slot #3_0"
    },
    {
      "mesh": 3,
      "name": "Object043_Material #14 Slot #4_0"
    }
  ],
  "samplers": [
    {
      "magFilter": 9729,
      "minFilter": 9987,
      "wrapS": 10497,
      "wrapT": 10497
    }
  ],
  "scene": 0,
  "scenes": [
    {
      "name": "Sketchfab_Scene",
      "nodes": [
        0
      ]
    }
  ],
  "textures": [
    {
      "sampler": 0,
      "source": 0
    },
    {
      "sampler": 0,
      "source": 1
    },
    {
      "sampler": 0,
      "source": 2
    },
    {
      "sampler": 0,
      "source": 3
    },
    {
      "sampler": 0,
      "source": 4
    },
    {
      "sampler": 0,
      "source": 5
    },
    {
      "sampler": 0,
      "source": 6
    },
    {
      "sampler": 0,
      "source": 7
    },
    {
      "sampler": 0,
      "source": 8
    }
  ]
}
